<?xml version="1.0" encoding="UTF-8" standalone="no"?>
<svg
   xmlns:dc="http://purl.org/dc/elements/1.1/"
   xmlns:cc="http://creativecommons.org/ns#"
   xmlns:rdf="http://www.w3.org/1999/02/22-rdf-syntax-ns#"
   xmlns:svg="http://www.w3.org/2000/svg"
   xmlns="http://www.w3.org/2000/svg"
   xmlns:sodipodi="http://sodipodi.sourceforge.net/DTD/sodipodi-0.dtd"
   xmlns:inkscape="http://www.inkscape.org/namespaces/inkscape"
   width="128.0px"
   height="128.0px"
   viewBox="0 0 128.0 128.0"
   version="1.1"
   id="SVGRoot"
   sodipodi:docname="rxiv.svg"
   inkscape:version="1.0.2 (e86c870879, 2021-01-15)">
  <defs
     id="defs10" />
  <sodipodi:namedview
     id="base"
     pagecolor="#ffffff"
     bordercolor="#666666"
     borderopacity="1.0"
     inkscape:pageopacity="0.0"
     inkscape:pageshadow="2"
     inkscape:zoom="3.473386"
     inkscape:cx="78.247965"
     inkscape:cy="62.329951"
     inkscape:document-units="px"
     inkscape:current-layer="layer2"
     inkscape:document-rotation="0"
     showgrid="false">
    <inkscape:grid
       type="xygrid"
       id="grid19" />
  </sodipodi:namedview>
  <metadata
     id="metadata13">
    <rdf:RDF>
      <cc:Work
         rdf:about="">
        <dc:format>image/svg+xml</dc:format>
        <dc:type
           rdf:resource="http://purl.org/dc/dcmitype/StillImage" />
        <dc:title />
      </cc:Work>
    </rdf:RDF>
  </metadata>
  <g
     inkscape:label="Layer 1"
     inkscape:groupmode="layer"
     id="layer1">
    <path
       id="rect26"
       style="fill:#010102;stroke-width:1.058"
       sodipodi:type="inkscape:offset"
       inkscape:radius="0"
       inkscape:original="M 9.5292969 4.5292969 C 6.7592969 4.5292969 4.5292969 6.7592969 4.5292969 9.5292969 L 4.5292969 118.4707 C 4.5292969 121.2407 6.7592969 123.4707 9.5292969 123.4707 L 118.4707 123.4707 C 121.2407 123.4707 123.4707 121.2407 123.4707 118.4707 L 123.4707 9.5292969 C 123.4707 6.7592969 121.2407 4.5292969 118.4707 4.5292969 L 9.5292969 4.5292969 z "
       d="m 9.5292969,4.5292969 c -2.77,0 -5,2.23 -5,5 V 118.4707 c 0,2.77 2.23,5 5,5 H 118.4707 c 2.77,0 5,-2.23 5,-5 V 9.5292969 c 0,-2.77 -2.23,-5 -5,-5 z" />
  </g>
  <g
     inkscape:groupmode="layer"
     id="layer3"
     inkscape:label="Layer 3">
    <g
       id="g914"
       style="fill:#f3d2d4">
      <g
         id="g906">
        <g
           id="g66">
          <path
             d="m 73.989953,74.942465 c -0.400408,-1.607085 0.57204,-2.680102 0.863482,-4.137313 0.315219,-1.576096 0.06747,-2.218068 0.789907,-3.628438 0.32795,-0.640237 -0.07433,-1.789339 0.287904,-2.472457 0.134451,-0.253556 1.919501,-3.435964 1.952714,-3.468663 0.15292,-0.150548 0.42375,-0.136485 0.575807,-0.287904 0.316713,-0.315383 0.616305,-1.053086 0.860108,-1.432304 0.353373,-0.549645 1.036537,-0.886363 1.41801,-1.418009 0.16154,-0.225133 -0.05448,-0.914407 0,-1.182023 0.09597,-0.38267 0.191935,-0.765341 0.287903,-1.148011 0.09597,-0.09597 0.244661,-0.159258 0.287904,-0.287904 0.339451,-1.00987 -0.05752,-2.328138 0.274302,-3.333172 0.583322,-1.766787 -0.03151,0.31252 0.563981,-0.840304 0.423451,-0.819766 0.452401,-8.743294 0.0015,-9.562327 -0.220328,-0.400205 0.207149,-1.156287 0,-1.563832 -0.122211,-0.240437 -0.422368,-0.347845 -0.572152,-0.572144 -0.338747,-0.507266 0.06295,-1.811088 -0.264304,-2.417298 -0.271152,-0.502285 -0.6026,-0.827232 -0.840111,-1.320193 -0.112002,-0.232462 0.121468,-0.649498 0,-0.876907 -0.273108,-0.511302 -2.108348,-1.008997 -1.932981,-1.607324 0.546152,-1.863398 7.98162,-7.339516 9.890919,-8.294165 1.455058,-0.727529 2.849435,-1.550951 4.307746,-2.299626 0.07653,-0.03929 0.258065,0.08602 0.258065,0 0,-0.08602 -0.344087,0 -0.258065,0 1.073659,0 2.358071,-0.03126 3.384658,-0.287904 0.04997,-0.01249 1.10164,-0.563313 1.151614,-0.575807 0.37241,-0.0931 0.779206,0.0931 1.151616,0 1.47585,-0.368962 2.9728,-0.287903 4.54791,-0.287903 0.93678,0 2.95365,-0.418929 3.70654,0.138258 1.38052,1.021657 2.12031,2.550356 2.84187,3.993493 0.75325,1.506492 1.67646,2.952189 2.59114,4.318552 0.27027,0.403742 0.10669,0.978055 0.2879,1.428852 0.29018,0.721869 0.83589,1.48864 1.14796,2.248631 0.16306,0.397102 -0.0547,1.277152 0,1.66004 0.23695,1.658666 0.94391,3.232724 1.15161,4.89436 0.042,0.335887 -0.056,1.791399 0,2.015324 0.10409,0.416367 0.4579,0.738946 0.57581,1.151614 0.19432,0.680107 0.14327,1.547735 0.2879,2.260036 0.096,0.383871 0.19194,0.767742 0.28791,1.151614 0.096,0.09597 0.25469,0.15631 0.2879,0.287903 0.27768,1.100343 0.12775,2.322999 0.2879,3.444097 0.35777,2.504402 0.16564,-0.0355 0.57581,2.015324 0.24964,1.248219 0.26978,6.988476 0,8.873865 -0.57204,3.997793 0.0153,-0.625929 -0.57581,1.723827 -0.47656,1.894359 -0.13198,3.402383 -1.06178,4.338489 -0.009,0.0091 0.12274,-0.708286 0,-0.973291 -0.32586,-0.703558 -0.79729,-0.910636 -0.79729,-1.898311 0,-0.529344 -0.36279,-0.708536 -0.56191,-1.109151 -0.15148,-0.304778 -0.2879,-3.16582 -0.2879,-3.66013 0,-0.713265 0.0526,0.104542 -0.57222,-1.140868 -0.32918,-0.656083 -0.006,-2.850553 -0.28791,-3.690135 -0.0865,-0.257291 -0.45119,-0.334664 -0.5758,-0.575807 -0.42731,-0.826895 0.10019,-2.256196 -0.2843,-3.05589 -0.10974,-0.22823 -0.42017,-0.312626 -0.5372,-0.537201 -0.13819,-0.265169 0.095,-0.748478 0,-1.033467 -0.0679,-0.203579 -0.25263,-0.364137 -0.28791,-0.575807 -0.0947,-0.567973 0.17365,-1.178421 0,-1.727421 -0.16708,-0.52826 -0.6353,-0.759618 -0.78748,-0.856849 -0.40175,-0.25669 -0.63967,-0.842117 -1.06143,-1.061424 -2.29342,-1.192526 -3.81917,-3.824046 -5.08337,-5.99686 -0.32184,-0.553149 -1.04826,-0.869964 -1.40367,-1.40367 -0.51433,-0.77235 -1.03232,-2.836808 -1.90105,-3.252093 -1.84979,-0.884264 -3.906275,-0.10568 -5.324851,-0.10568 -0.621769,0 -0.886002,0.538405 -1.456387,0.538405 -0.420661,0 -1.649364,0.287903 -1.228703,0.287903 0.129513,0 0.518053,0 0.38854,0 -0.215399,0 -2.479041,-0.121842 -2.49148,0.137002 -0.01843,0.383613 2.695776,3.049728 3.20247,3.959499 0.08136,0.146088 -0.334435,0 -0.501652,0 -0.157894,0 -0.14178,0.246656 -0.618877,0 -0.277629,-0.143532 -0.469707,-0.666714 -0.764304,-0.764304 -0.464518,-0.153879 -0.975287,-0.13316 -1.439518,-0.287904 -0.360204,-0.120068 -0.618088,-0.75911 -1.138013,-0.575807 -0.54937,0.193684 1.698919,2.636835 1.698919,3.867913 0,0.784853 0.178171,1.370513 0.287903,2.138638 0.368943,2.582601 0.159562,10.620947 -0.287903,13.30574 -0.176131,1.056788 -0.277639,0.599285 -0.575807,1.435898 -0.253228,0.710519 -0.02645,1.738984 -0.287904,2.408538 -0.308868,0.790985 -0.926985,1.702765 -1.30516,2.456757 -0.286845,0.571902 -0.04881,1.218456 -0.284301,1.68943 -0.395914,0.791827 -1.182149,1.429754 -1.590744,2.244378 -0.522245,1.041211 -1.106085,2.267413 -1.71491,3.181884 -0.87135,1.308793 -2.001487,1.769639 -3.382532,3.150684 -0.660269,0.66027 -1.056947,1.412389 -1.916867,1.916868 -0.594112,0.348539 -2.227313,0 -2.942471,0 -1.607632,0 -1.699014,0.934955 -3.277099,-1.079814 z"
             id="path15" />
          <path
             d="m 111.88246,29.680982 c 0.47568,0.89487 1.30393,3.351763 2.61768,4.033768 0.0775,0.04024 0.17467,0 0.262,0 0.27835,0.09477 0.59925,0.108628 0.83504,0.28431 0.28781,0.214452 0.7238,1.247139 0.89593,1.551013 0.18623,0.328745 0.6671,0.503175 0.83901,0.839013 0.5451,1.064891 0.70526,2.448757 1.14799,3.331397 0.19101,0.380794 0.42403,1.435906 0.56226,1.638787 0.25788,0.378482 0.71794,0.71787 0.86037,1.144936 0.21178,0.635015 -0.0947,1.345527 0,2.008199 0.13781,0.964684 0.26948,0.254896 0.57581,0.863711 0.15759,0.31321 -0.0808,1.02548 0,1.346736 0.77583,3.083895 0.60946,7.219621 -0.55722,10.129752 -0.39462,0.984337 -0.0279,2.381115 -0.2879,3.421156 -0.18737,0.749464 -0.82688,1.201067 -1.14683,1.82847 -0.23737,0.465448 -0.21641,1.08416 -0.52816,1.54916 -6e-5,9.1e-5 -0.55074,0.550693 -0.5508,0.550801 -0.39648,0.779816 -0.48406,2.195093 -1.20194,2.91295"
             id="path19" />
        </g>
        <path
           d="M 54.025838,74.230042 C 54.510022,72.223245 53.82934,70.362715 52.593841,68.715383 52.377913,68.427479 51.874082,68.139576 51.73013,67.851672 51.553175,67.49776 51.619183,67.05397 51.442227,66.700058 50.608986,65.033576 49.055038,62.831371 47.987385,61.229892 47.116296,59.923259 46.749516,58.379997 46.263566,56.922146 45.862227,55.718129 45.153095,54.618967 44.824049,53.467304 44.4414,52.128033 44.186584,52.075855 43.672435,50.876173 c -0.603922,-1.409151 -1.160289,-2.921152 -1.440133,-4.320372 -0.125293,-0.626464 -1.372233,-2.661566 -1.723801,-3.703937 -0.509478,-1.510562 0.26894,-2.030862 1.127874,-3.462433 1.026991,-1.71167 2.024153,-3.507822 3.121391,-5.109224 0.214275,-0.312731 -0.01558,-1.468629 -0.224749,-1.677797 -0.261576,-0.261582 -1.284254,-1.56246 -1.371495,-1.824174 -0.410631,-1.231853 0.552512,0.120413 -0.287904,-1.14021 -0.281376,-0.422065 -0.914429,-0.689425 -1.140859,-1.14086 C 40.85893,28.299141 41.619421,27.717799 41.448457,27.370101 41.014412,26.487358 40.235579,25.783068 39.765951,24.849689 39.392302,24.107065 39.307369,23.089866 38.939669,22.379322 38.65153,21.822521 35.7589,17.947544 35.390306,17.73882 32.552893,16.132079 31.605653,15.940334 30.26742,13.92735 c -0.214833,-0.323154 -0.601672,-0.601684 -0.879104,-0.879109 -0.05792,-0.05792 -0.115841,-0.231659 -0.173754,-0.173741 -0.05791,0.05792 0.173754,0.255647 0.173754,0.173741 0,-0.626701 -2.260722,-1.745748 -2.62067,-1.926237 C 25.872765,10.673282 24.005304,9.3460706 23.152808,9.1309245 21.625037,8.7453575 20.018677,8.8306249 18.761349,8.0115248 18.486462,7.8324471 9.7372235,8.1403833 9.6245945,8.2523347 c -0.1127947,0.1121161 0.066295,0.6183081 0,0.7580091 -0.4509794,0.9503262 -1.168501,1.0696432 -1.168501,2.1230162 0,0.135592 -0.9185936,3.175663 -1.022994,3.464599 -0.2078137,0.575139 -0.6487705,0.816124 -0.8444777,1.401047 -0.079758,0.238379 0.080636,0.557665 0,0.795719 -0.015405,0.04548 -0.9016545,1.48836 -0.7983506,1.48836 0.197172,0 1.4952587,-0.71988 2.2840304,-1.204682 0.4520234,-0.277827 1.493451,-0.657415 2.0446174,-0.845194 0.245955,-0.08379 0.576277,0.08219 0.822838,0 0.582759,-0.194255 0.823052,-0.704373 1.418659,-0.853273 1.031934,-0.257979 3.358676,-1.461559 4.602924,-0.840067 0.43664,0.218099 0.08218,0.406925 0.478263,0.603484 0.970816,0.481777 2.605779,1.991308 3.940398,3.325927 0.594213,0.594213 1.431832,0.907003 2.138612,1.380651 0.502173,0.336531 4.172208,6.029851 4.328551,6.498538 0.143001,0.42869 -0.287917,0.282169 0,0.856101 0.214737,0.428056 0.711885,0.699762 0.860688,1.145552 0.12078,0.361838 -0.12063,0.782503 0,1.144392 0.285321,0.855963 1.325887,1.246576 1.828268,1.996039 0.182433,0.272157 0.13613,0.758852 0.284301,1.039292 0.358861,0.679205 1.198869,1.021831 1.470375,1.727421 0.403084,1.047538 -0.176316,9.880083 -0.287904,10.38223 -0.159116,0.716025 -1.326076,2.42557 -0.86371,3.304494 0.41165,0.78252 1.298496,1.407437 1.671471,2.135413 0.823339,1.607004 -0.823339,-1.058943 0,0.548061 0.228405,0.445805 0.871871,0.674436 1.113745,1.113746 0.179783,0.326534 0.119616,0.747965 0.287904,1.080569 0.28798,0.569163 0.754825,1.099447 1.134903,1.606217 0.537069,0.716092 0.68275,1.804942 1.148064,2.580465 0.682572,1.137619 1.923808,1.842087 2.647152,2.935055 0.602251,0.909998 0.736385,1.910167 1.151614,2.879035 -0.156849,0.711648 0.648036,0.722977 0.863711,1.151614 0.229863,0.456838 -0.228758,1.25909 0,1.716606 0.01407,0.02814 0.529175,0.515893 0.552752,0.552752 0.177884,0.278098 0.107735,0.936884 0.287903,1.199735 0.943601,1.376642 2.241172,2.519455 2.995504,4.022522 0.504659,1.005574 3.32286,1.836827 4.260178,2.325211 0.458074,0.238677 1.058663,0.797715 1.711887,1.45094"
           id="path73" />
      </g>
      <path
         d="m 111.88246,29.680982 c 1.4826,1.401479 2.4153,2.673896 3.19495,4.490909 0.21623,0.503952 0.0773,1.295065 0.2879,1.716298 0.29159,0.583182 0.67732,0.709718 0.85615,1.424906 0.13623,0.544795 -0.24736,1.470843 0,1.96556 0.11853,0.237044 0.4431,0.325449 0.56221,0.562198 0.15034,0.298813 -0.14964,0.823552 0,1.12283 0.0607,0.121391 0.24466,0.159258 0.2879,0.287904 0.23123,0.687884 -0.22951,1.607471 0,2.296015 0.0858,0.257508 0.45387,0.333302 0.57581,0.575807 0.21833,0.434183 -0.15341,1.199688 0,1.659908 0.49659,1.489755 1.36042,6.500528 0.78609,8.201604 -0.23076,0.683494 -0.684,1.286386 -0.86,1.985987 -0.0946,0.37602 0.1529,0.999201 0,1.363817 -0.4148,0.989198 -1.95496,1.683111 -1.95496,3.270702"
         id="path17" />
    </g>
  </g>
  <g
     inkscape:groupmode="layer"
     id="layer4"
     inkscape:label="Layer 4">
    <g
       id="g865"
       style="fill:#f45c84">
      <g
         id="g62">
        <g
           id="g37">
          <path
             d="m 89.096963,32.627776 c 0.05345,1.578727 -0.275938,1.495188 0.516834,2.287976 0.878104,0.878121 1.756223,1.756227 2.634342,2.634332 0.199212,0.199209 0.660746,0.828778 0.488842,1.171858 -0.08142,0.162487 -0.668002,0.246635 -0.486259,0.246635 0.411187,0 -0.995385,0.0026 -1.000317,0 -1.292446,-0.673782 0.344868,-1.579156 -1.941644,-1.579156 -0.706383,0 -2.724442,-1.088052 -2.770087,-0.963274 -0.0481,0.131497 1.024861,0.980481 1.112762,1.112761 0.439424,0.661289 0.777224,1.5455 1.11907,2.219374 0.150022,0.295735 -0.150047,0.819809 0,1.115529 0.227021,0.447426 1.638255,1.663292 2.14369,1.491821 1.932442,-0.655588 2.712663,-1.835271 3.093187,-2.407651 0.223667,-0.336435 0.253484,-0.801267 0.542016,-1.084048 0.326706,-0.320195 2.189433,-1.9197 1.972747,-2.512689 -0.275171,-0.753042 -0.813712,-0.980357 -1.422385,-1.384534 -1.201295,-0.797697 -1.424433,-0.623692 -3.563948,-0.623692 -0.125881,0 -0.963829,0.08829 -1.140982,0 -0.495524,-0.24697 -1.149305,-1.486954 -1.297868,-1.725242 z"
             id="path23" />
          <path
             d="m 88.799921,65.322685 c -1.963746,2.583156 -2.96679,4.665469 -5.121657,6.102047 -0.86277,0.57518 -1.866218,1.300119 -2.591131,2.015324 -0.617754,0.609481 -1.07823,1.388349 -1.692136,2.002268 -0.331546,0.331553 -1.211774,0.766027 -1.439237,1.151483 -0.213534,0.361853 0.814202,0.255272 1.234362,0.255272 1.271764,0 3.027895,0.383819 4.188799,0 0.614683,-0.203228 2.848341,-1.992542 -0.787939,0.601453"
             id="path25" />
        </g>
        <g
           id="g52">
          <g
             id="g33"
             transform="translate(-0.2879035,-0.2879035)">
            <path
               d="m 82.590982,77.450532 c 0.740209,-0.679535 1.610744,-1.759357 2.549907,-2.261995 0.432746,-0.231604 0.920595,-0.60327 1.364625,-0.845198 0.148323,-0.08081 0.356539,0.07729 0.50673,0 0.967022,-0.497609 1.60165,-1.641096 2.466352,-2.289715 0.670025,-0.50259 0.906144,-0.879707 1.429888,-1.403441 0.127004,-0.127003 0.508002,-0.508025 0.381001,-0.381019 -0.732322,0.73235 -0.233576,0.290649 0,-0.228281 0.101555,-0.225623 -0.117387,-0.277073 0,-0.511299 0.325574,-0.649632 0.949316,-1.172347 1.295829,-1.842976 0.237129,-0.458931 0.08877,-1.432843 0.266395,-1.941732 0.201079,-0.57608 0.600299,-0.906725 0.842923,-1.391853 0.0873,-0.174556 -0.07662,-0.463283 0,-0.643267 0.215554,-0.506323 0.614637,-0.660113 0.844996,-1.095409 0.206926,-0.391018 -0.106795,-0.413009 0.260332,-0.954463 0.147135,-0.217 0.422794,-0.330447 0.556162,-0.55617 0.0879,-0.148777 -0.07938,-0.45756 0,-0.61038 0.17825,-0.343174 0.667525,-0.52153 0.858403,-0.858386 0.193384,-0.341277 0.312619,-0.833198 0.563542,-1.224987 0.428712,-0.669387 0.215383,-1.875245 0.538589,-2.620758 0.137633,-0.317467 0.4473,-0.542442 0.575807,-0.863711 0.142567,-0.356415 -0.07528,-0.775197 0,-1.151614 0.128147,-0.640744 1.041707,-2.897985 1.400507,-3.5061 0.69972,-1.185945 0.2351,-4.100676 0.2351,-5.570689 0,-0.994585 -0.51902,-2.175082 -0.49039,-2.175082 1.34124,0 0.64118,0.504838 1.65673,1.051259 0.35633,0.191726 1.18318,0.07754 1.49387,0.287903 1.24979,0.846226 2.82461,1.332163 4.06553,2.170988 0.35632,0.240866 1.24774,0.09256 1.65005,0.287904 0.4806,0.23337 1.36334,2.574293 1.63532,3.026062 0.67114,1.114788 1.82367,1.987105 2.25812,3.212222 0.43857,1.236735 0.6602,2.790777 1.27264,4.007981 0.33451,0.664837 0.0809,2.565823 0.2879,3.391064 0.34561,1.377716 0.13806,-0.0063 0.57581,0.86371 0.2236,0.444412 -0.15804,1.215362 0,1.691424 0.39462,1.188733 0.28256,2.53644 0.28256,3.081213 0,0.380904 1.03141,1.689965 1.43119,1.808473 0.24027,0.07122 0.13908,-2.075346 0.13908,-2.493667 0,-2.064662 0,-4.129323 0,-6.193985 0,-1.687779 0.327,-7.095556 0,-7.77538 -0.10872,-0.226032 -0.41128,-0.312251 -0.53207,-0.53207 -0.26243,-0.477586 0.0264,-1.450908 -0.229,-1.96013 -0.15513,-0.309292 -0.4185,-0.555518 -0.57581,-0.863711 -0.27033,-0.529631 0.11278,-3.948348 -0.2879,-4.764052 -0.0512,-0.104265 -1.84745,-1.298564 -1.87366,-1.307375 -0.77465,-0.260401 -0.80777,0.167926 -1.70939,-0.284301 -1.28002,-0.642023 -2.2396,-1.680373 -3.37396,-2.43661 -0.42481,-0.283211 -0.68919,-0.907253 -1.14098,-1.140983 -2.36537,-1.223698 -3.41897,-3.013235 -6.11475,-4.591089 -0.25539,-0.149478 -0.76792,0.120536 -1.03866,0 -0.79965,-0.356013 -0.48321,-0.498691 -1.486155,-0.498691 -1.222447,0 -3.524692,-0.412545 -4.582241,0.256238 -0.389237,0.24615 -0.61746,0.743201 -1.000124,1.000124 -0.288134,0.193456 -1.194615,0.232349 -1.040962,0.774611 0.0839,0.296081 0.116949,0.573237 0.770209,0.899092 0.233994,0.116719 0.637931,-0.09786 0.880668,0 1.751528,0.706105 5.235604,3.175386 4.598865,5.109426 -0.455532,1.383638 -5.55168,-0.427692 -6.36911,0.746609 -0.100991,0.145081 0.439709,0.520245 0.471903,0.579937 0.234047,0.433958 0,1.801011 0,2.24458 0,2.281954 0.373616,4.815687 0,7.057388 0.09999,0.58578 -0.474454,0.932751 -0.575807,1.439517 -0.166223,0.831111 0.06175,1.044581 -0.287904,1.727421 -0.158012,0.308579 0.108699,0.94655 0,1.265105 -0.0073,0.02152 -0.567061,0.552686 -0.571853,0.571853 -0.23838,0.953517 -0.09368,1.899522 -0.287904,2.868202 -0.178982,0.892664 -0.734956,1.689851 -0.86371,2.591131 -0.14298,1.00086 -0.274502,1.694739 -0.575807,2.591132 -0.154131,0.458546 0.217055,1.245245 0,1.679369 -0.389886,0.779797 -0.198809,1.634782 -0.562171,2.543186 -0.255368,0.638421 -0.804164,1.317568 -1.132917,1.959243 -0.153864,0.300319 -0.104119,0.971562 -0.274039,1.23857 -0.793485,1.246864 -0.890318,0.692733 -1.88225,1.716658 -0.352879,0.36426 -2.007396,1.908794 -1.969813,2.500099 0.03357,0.528241 0.281203,1.020583 0.421804,1.530875 z"
               id="path21" />
            <path
               d="m 99.148403,42.683786 c 1.562837,9.714551 -1.122471,19.37503 -4.606385,28.084816 -0.143329,0.35832 -3.289072,3.266563 -3.566971,3.454789 -0.02506,0.01697 -1.258322,0.358921 -1.082942,0.534302 0.08666,0.08666 0.346642,-0.346642 0.259982,-0.259982 -0.584359,0.584359 -2.202009,1.687234 -3.029436,1.687234 -1.135733,0 -2.590746,0.268313 -3.555162,0.762187 -0.286856,0.146897 -1.130177,0 -1.466403,0 -0.825306,0 -1.310943,0 -2.60649,0 -0.347959,0 -1.043878,-0.34796 -1.043878,0 0,0.08289 0.331576,0 0.248682,0 -0.312329,0 -1.519622,-0.326786 -1.548079,-0.726981 -0.006,-0.08472 0.172892,0.02247 0.254797,0 0.384209,-0.10541 0.650991,-0.392227 1.006977,-0.507073 0.747747,-0.241235 1.18851,-1.082998 1.861445,-1.310634 0.642527,-0.217351 0.847534,-1.265699 1.130545,-1.784399 0.03828,-0.07016 0,-0.159843 0,-0.239765 0.09597,-0.184743 0.171662,-0.381522 0.287903,-0.554228 0.471127,-0.699979 1.914892,-1.245371 2.266819,-1.937734 0.473671,-0.931879 0.846475,-1.572191 1.635166,-2.360883 0.505711,-0.505711 1.185406,-1.002749 1.586861,-1.586861 0.213181,-0.310174 0.604933,-0.696659 0.786428,-1.016351 0.03451,-0.06079 -0.06298,-0.240024 0,-0.209699 0.309784,0.149168 0.554439,0.406774 0.831659,0.610161"
               id="path29" />
          </g>
          <path
             d="m 89.096963,32.627776 c 0.878781,0.583149 1.757562,1.166298 2.636344,1.749447 0,0.05073 0.02714,0.109335 0,0.152193 -0.207878,0.328227 -0.597716,0.530566 -0.752531,0.875273 -0.07477,0.166483 0.05815,0.338553 0,0.505483 -0.196062,0.562792 -0.626536,0.801845 -0.829586,1.371267 -0.396504,1.11194 -0.76765,2.202463 -1.295249,3.237939 -0.302946,0.594568 0,2.226301 0,2.807182 0,0.299503 -0.13274,1.045953 0,1.311434 0.240584,0.481167 2.429496,1.641706 3.022442,1.945088 0.207224,0.106027 0.565041,-0.08999 0.78077,0 0.203051,0.0847 0.271371,0.365496 0.466718,0.46671 0.593145,0.307321 1.693298,0.218214 1.8153,0.154337 1.404023,-0.735108 0.717792,-1.714521 1.113605,-2.473775 0.01982,-0.03803 0.525249,-0.508283 0.556302,-0.556294 0.30865,-0.477201 -0.186439,-1.558205 0,-2.103502 0.191244,-0.55935 0.111563,-1.127502 0.287904,-1.648671 0.09101,-0.268979 0.648776,-0.523783 0.447986,-0.724573 -0.05713,-0.05713 -0.171399,0.252198 -0.171399,0.171399 0,-0.993951 0.171399,-2.157138 0.171399,-3.787756"
             id="path46" />
        </g>
      </g>
      <path
         d="m 50.96797,75.241931 c -0.91677,0.580846 -1.394386,-1.758857 -1.881055,-2.073041 -0.360914,-0.232999 -0.779865,-0.04006 -1.133708,-0.216991 -1.385852,-0.692948 -2.523491,-2.780242 -3.14529,-4.009 -0.121415,-0.239932 -0.05733,-0.638515 -0.17769,-0.872382 -0.468301,-0.909967 -1.492339,-1.61293 -1.97157,-2.533073 -0.188245,-0.361439 -0.100842,-1.022986 -0.274285,-1.361514 -0.12377,-0.241577 -0.48932,-0.318516 -0.575807,-0.575807 -0.204116,-0.607228 -0.05497,-1.298792 -0.287903,-1.889323 -0.271901,-0.689308 -1.013003,-1.2867 -1.36278,-1.96657 -0.787331,-1.530356 -0.986764,-3.239619 -2.011722,-4.777057 -0.448357,-0.672535 -1.070912,-1.300168 -1.439518,-2.007513 -0.130117,-0.249693 0.102943,-0.680601 0,-0.94514 -0.210102,-0.539916 -0.62025,-0.667552 -0.85032,-1.124834 -0.218061,-0.433413 0.218063,-1.195966 0,-1.629377 -0.121998,-0.242477 -0.443986,-0.338527 -0.575807,-0.575807 -0.08953,-0.161151 -0.517755,-1.585078 -0.850022,-2.581827 -0.605256,-1.815677 0.471302,-6.869928 0,-8.140655 -0.215576,-0.581237 -0.585809,-0.975061 -0.831219,-1.474679 -0.255694,-0.520555 0.188702,-1.352874 0,-1.907018 -0.652367,-1.915741 0.05981,0.354585 -0.567285,-0.851524 -0.354036,-0.680927 0,-2.981489 0,-3.608046 0,-2.492421 0.03182,-1.806622 -0.91908,-3.598987 -0.07252,-0.136685 0.07238,-0.327435 0,-0.464188 -0.209794,-0.39635 -0.612569,-0.630014 -0.806794,-1.021887 -0.123765,-0.24971 0.08942,-0.572131 0,-0.836096 -0.07824,-0.230965 -0.851252,-1.210065 -0.851252,-1.727386 0,-0.375384 0.375384,-1.126152 0,-1.126152 -0.08468,0 0.05988,0.313933 0,0.254051 -1.009419,-1.009485 -2.672111,-4.407389 -3.767487,-4.885248 -0.184021,-0.08028 -0.483423,0.09014 -0.662351,0 -0.28766,-0.144909 -0.494946,-0.439971 -0.771702,-0.570505 -0.05936,-0.028 -0.55648,-0.579986 -0.568233,-0.568233 -0.05847,0.05846 0.258069,0.175397 0.175388,0.175397 -0.770864,0 -0.943478,-0.05025 -1.560625,-0.44666 -0.280648,-0.180267 -1.068073,0.104029 -1.373358,0 -0.454194,-0.15477 -0.734997,-0.625644 -1.151614,-0.86371 -1.267163,-0.724093 -3.210083,-0.863711 -3.81184,-0.863711 -0.963893,0 -2.330654,-0.288003 -3.219321,0 -1.397587,0.452936 -1.277477,1.463326 -3.127753,2.054787 -0.9360934,0.299233 -1.8692404,0.97863 -2.7401438,1.416823 -0.5999194,0.301848 -1.2238388,0.241706 -0.2106736,0.241706 0.3919262,0 1.629858,0.748464 2.5106504,1.170162 1.232598,0.590132 7.254499,-0.514031 8.357988,0 0.804978,0.374978 2.734121,3.136631 3.232044,3.873782 0.704821,1.043453 1.430696,1.876951 2.096701,2.858862 0.195058,0.28758 0.120965,0.768109 0.274145,1.059869 0.126177,0.240329 0.452084,0.334206 0.575807,0.575807 0.288548,0.563466 0.545755,1.373189 0.850109,1.967344 0.09933,0.1939 -0.09929,0.540378 0,0.7343 1.064748,2.079602 -0.181009,-1.168025 0.874131,1.047454 0.201235,0.422533 0.01237,0.849829 0.284301,1.391994 0.693425,1.382515 -0.174057,-1.324301 0.575807,0.86371 0.07765,0.22658 -0.102169,0.579499 0,0.794731 0.148489,0.312808 0.606543,0.478755 0.779803,0.779803 0.24501,0.425716 -0.04858,0.831237 0.525867,1.698084 0.141211,0.213087 0,8.57894 0,8.981336 0,0.43407 0.159454,1.328786 0,1.727421 -0.128507,0.321269 -0.420678,0.554417 -0.575807,0.863711 -0.227529,0.453644 -0.217658,3.224835 0,3.656949 0.623567,1.23796 1.810543,2.641874 2.170224,4.080598 0.125349,0.501397 0.04475,1.204403 0.287903,1.659671 0.288296,0.539781 0.880975,0.85618 1.222466,1.373508 0.875001,1.325549 0.542986,1.305475 0.86371,2.580404 0.143088,0.568797 1.208122,0.923553 1.462889,1.462879 0.151662,0.321061 0.128254,0.809193 0.284389,1.116672 0.288478,0.568103 1.24969,1.24969 1.684773,1.684773 1.164668,1.164668 2.774283,2.793631 2.925935,3.102668 0.704005,1.434618 2.2466,3.635284 2.529243,4.52334 0.325445,1.02254 1.94644,1.767169 1.791928,1.767169 -0.150539,0 -0.422858,-0.309129 -0.422858,-0.158589 0,0.173631 0.472593,0.232572 0.555072,0.429017 0.123028,0.293026 0.474174,1.181026 0.704892,1.406666 1.486413,1.453698 -0.23883,-0.973858 0.863711,0.863711 0.246307,0.410512 0.808922,1.654535 1.382865,1.689447 0.858316,0.05221 1.511517,-1.664941 2.039767,-2.19319 0.359833,-0.359833 0.596428,-0.14456 0.981058,-0.537799 0.15005,-0.153408 0.102744,-0.467339 0.287903,-0.575807 0.395727,-0.23182 0.883603,-0.246187 1.325404,-0.36928 z"
         id="path77" />
    </g>
  </g>
  <g
     inkscape:groupmode="layer"
     id="layer2"
     inkscape:label="Layer 2">
    <path
       id="path871"
       style="fill:#dcc3ff;stroke-width:1.058"
       d="M 63.935547,73 A 42,46.199997 0 0 0 22,119.19922 42,46.199997 0 0 0 22.179688,123.4707 H 105.82031 A 42,46.199997 0 0 0 106,119.19922 42,46.199997 0 0 0 64,73 42,46.199997 0 0 0 63.93555,73 Z" />
  </g>
</svg>
